<svg width="40" height="40" viewBox="0 0 40 40" fill="none" xmlns="http://www.w3.org/2000/svg">
<g filter="url(#filter0_d)">
<circle cx="20" cy="18" r="16" fill="#5154A5"/>
<path d="M18.1857 18.456L19.0497 21H20.1657L17.4057 12.912H16.1577L13.3977 21H14.4777L15.3177 18.456H18.1857ZM15.5337 17.64L16.3257 15.3C16.4937 14.808 16.6137 14.304 16.7337 13.836H16.7577C16.8777 14.304 16.9977 14.784 17.1777 15.312L17.9817 17.64H15.5337ZM21.3573 21H22.4013V17.496H23.3853C24.3333 17.532 24.7773 17.952 25.0173 19.068C25.2333 20.076 25.4133 20.76 25.5453 21H26.6253C26.4573 20.688 26.2653 19.908 26.0013 18.78C25.8093 17.94 25.4373 17.364 24.8253 17.148V17.112C25.6653 16.824 26.3373 16.116 26.3373 15.06C26.3373 14.424 26.0973 13.872 25.7013 13.512C25.2093 13.068 24.4773 12.852 23.3613 12.852C22.6533 12.852 21.8853 12.924 21.3573 13.02V21ZM22.4013 13.752C22.5813 13.704 22.9293 13.668 23.4333 13.668C24.5373 13.668 25.2933 14.124 25.2933 15.168C25.2933 16.092 24.5853 16.704 23.4693 16.704H22.4013V13.752Z" fill="white"/>
</g>
<defs>
<filter id="filter0_d" x="0" y="0" width="40" height="40" filterUnits="userSpaceOnUse" color-interpolation-filters="sRGB">
<feFlood flood-opacity="0" result="BackgroundImageFix"/>
<feColorMatrix in="SourceAlpha" type="matrix" values="0 0 0 0 0 0 0 0 0 0 0 0 0 0 0 0 0 0 127 0"/>
<feOffset dy="2"/>
<feGaussianBlur stdDeviation="2"/>
<feColorMatrix type="matrix" values="0 0 0 0 0 0 0 0 0 0 0 0 0 0 0 0 0 0 0.2 0"/>
<feBlend mode="normal" in2="BackgroundImageFix" result="effect1_dropShadow"/>
<feBlend mode="normal" in="SourceGraphic" in2="effect1_dropShadow" result="shape"/>
</filter>
</defs>
</svg>
