<svg width="24" height="24" viewBox="0 0 24 24" fill="none" xmlns="http://www.w3.org/2000/svg">
<g clip-path="url(#clip0)">
<path fill-rule="evenodd" clip-rule="evenodd" d="M-3 2H26.9954V21.9969H-3V2Z" fill="#199D00"/>
<path fill-rule="evenodd" clip-rule="evenodd" d="M4.55931 7.66848C4.52706 8.13615 4.48271 8.9586 4.88184 9.04327C5.36161 9.08761 5.09552 8.22888 5.26888 8.07567C5.30517 7.99504 5.36564 7.99504 5.36967 8.09583V8.82153C5.36564 9.06342 5.51884 9.12793 5.63979 9.18034C5.76881 9.16825 5.84944 9.17228 5.90185 9.29323L5.95829 10.5551C5.95829 10.5551 6.2526 10.6358 6.2647 9.84556C6.28082 9.38192 6.17197 8.99085 6.23648 8.90216C6.23648 8.81346 6.34936 8.80943 6.42999 8.84975C6.55498 8.93844 6.61142 9.05133 6.80494 9.00295C7.10328 8.92232 7.28067 8.77718 7.28873 8.55141C7.27848 8.32905 7.23218 8.10983 7.15166 7.90231C7.16375 7.862 7.09118 7.76121 7.10731 7.72089C7.15972 7.80152 7.24035 7.79749 7.26051 7.72089C7.2081 7.55156 7.1315 7.39433 7.00249 7.32579C6.89766 7.23306 6.74446 7.25322 6.68802 7.44674C6.68141 7.70087 6.76738 7.94874 6.92992 8.14421C6.98061 8.25376 7.00147 8.37476 6.99039 8.49496C6.90573 8.54737 6.82106 8.52318 6.74849 8.45062C6.74849 8.45062 6.51063 8.26919 6.51063 8.23291C6.57513 7.82974 6.52675 7.7854 6.49047 7.67251C6.46628 7.51931 6.39371 7.47093 6.33323 7.36611C6.27276 7.3016 6.19616 7.3016 6.15584 7.36611C6.05102 7.54753 6.0994 7.93457 6.176 8.10793C6.23244 8.26919 6.31308 8.36998 6.27276 8.36998C6.24051 8.45868 6.176 8.43852 6.12762 8.3337C6.06778 8.11164 6.03929 7.8823 6.04296 7.65235C6.0228 7.47093 6.00264 7.08792 5.88169 6.99116C5.80912 6.8944 5.70027 6.94278 5.66398 7.03148C5.65379 7.20622 5.65783 7.38151 5.67608 7.55559C5.75671 7.83781 5.7809 8.09583 5.82122 8.39014C5.83331 8.78524 5.59141 8.5635 5.60351 8.36595C5.65995 8.11196 5.64382 7.70879 5.59544 7.608C5.55513 7.50721 5.51078 7.48302 5.41805 7.49915C5.33742 7.49109 5.14793 7.70073 5.09552 8.05551C5.09552 8.05551 5.04714 8.23694 5.02698 8.39417C4.99876 8.5756 4.88184 8.70461 4.79718 8.36998C4.72461 8.12808 4.68026 7.52737 4.55931 7.66848Z" fill="white"/>
<path fill-rule="evenodd" clip-rule="evenodd" d="M5.86553 9.58755L4.61572 10.1883C4.62782 9.90605 5.20837 9.39 5.60347 9.38194C5.8615 9.39 5.79699 9.48273 5.86553 9.58352V9.58755Z" fill="white"/>
<path fill-rule="evenodd" clip-rule="evenodd" d="M5.64789 9.9786C4.9867 11.6759 7.18798 11.9138 7.43391 10.0471C7.4581 9.97054 7.55486 9.89394 7.56695 10.0189C7.51454 11.7122 5.8656 11.8251 5.58338 11.2929C5.51485 11.172 5.49469 10.8898 5.48662 10.7204C5.44631 10.3898 5.26892 10.5188 5.24473 10.8494C5.2165 11.0309 5.22054 11.0833 5.22054 11.2607C5.30923 12.5911 7.43794 12.0186 7.78466 10.918C7.96608 10.3092 7.75241 9.85765 7.8532 9.85765C8.06284 10.0875 8.36119 9.88991 8.42569 9.80927C8.45391 9.76896 8.52245 9.74477 8.57083 9.79718C8.7321 9.91813 9.02641 9.85765 9.08688 9.65204C9.11913 9.44643 9.14736 9.23678 9.15542 9.01907C9.02238 9.05939 8.92158 9.08761 8.91352 9.14002L8.8853 9.32548C8.8732 9.38192 8.75629 9.38595 8.75225 9.30935C8.69984 9.07955 8.4902 9.04729 8.36119 9.40611C8.27652 9.47868 8.11929 9.48674 8.10316 9.38595C8.12332 9.14405 8.02656 9.1118 7.83304 9.22469L7.64355 7.81361C7.72419 7.81361 7.80079 7.87005 7.87336 7.77733C7.79272 7.52333 7.61936 7.01131 7.52664 6.971C7.47826 6.91455 7.44197 6.95084 7.3815 6.96293C7.27667 6.99519 7.17991 7.08388 7.21217 7.25724L7.5347 9.28113C7.55083 9.36579 7.47826 9.48271 7.38553 9.47062C7.22829 9.36176 7.18798 9.14808 6.92189 9.15615C6.72434 9.15615 6.5026 9.36982 6.47841 9.57544C6.44212 9.7367 6.43003 9.9141 6.47841 10.0552C6.61145 10.2165 6.77675 10.2044 6.92189 10.1641C7.03881 10.1157 7.13557 9.99876 7.17991 10.027C7.20814 10.0633 7.18395 10.4503 6.61952 10.7527C6.28086 10.9059 6.00671 10.9381 5.86157 10.66C5.77287 10.4866 5.86963 9.8254 5.64789 9.97457V9.9786Z" fill="white"/>
<path fill-rule="evenodd" clip-rule="evenodd" d="M8.44179 8.24901C8.57483 8.20466 9.19974 7.48299 9.19974 7.48299L9.10701 7.41042C9.07072 7.37817 9.07475 7.34995 9.10701 7.3177C9.26021 7.229 9.21183 7.02742 9.1312 6.93872C9.07861 6.91246 9.02065 6.89879 8.96187 6.89879C8.90309 6.89879 8.84512 6.91246 8.79254 6.93872C8.68369 7.04758 8.6595 7.21287 8.74416 7.3177C8.82479 7.35801 8.91349 7.43865 8.85705 7.48703C8.59902 7.76118 7.89752 8.23288 7.97815 8.25304C7.99427 8.2732 8.42969 8.2732 8.44179 8.25304V8.24901ZM4.65608 10.7889C4.42224 11.1639 4.40208 11.7243 4.53513 11.8896C4.59964 11.9702 4.71252 12.0025 4.79719 11.9783C4.94636 11.9138 5.01086 11.6154 4.97458 11.5066C4.9262 11.4259 4.88588 11.4179 4.8375 11.4824C4.73268 11.692 4.68833 11.5469 4.68027 11.43C4.66414 11.2082 4.6843 10.9986 4.70849 10.8373C4.73671 10.672 4.70849 10.7204 4.65608 10.7889ZM14.6989 10.1842C14.4731 9.69637 14.1587 9.21257 14.0579 9.02711C13.7538 8.54565 13.431 8.07627 13.0903 7.62007C12.8484 7.32979 13.4894 7.74102 13.0096 7.1645C12.8282 7.00323 12.8161 6.9992 12.6629 6.87019C12.5863 6.81374 12.4009 6.71698 12.3686 6.87825C12.3526 6.99383 12.358 7.11138 12.3847 7.22497C12.4009 7.3056 12.5178 7.43865 12.5782 7.51928C13.3443 8.54735 14.0256 9.59154 14.6787 10.8978C14.7836 10.8494 14.7594 10.2689 14.6989 10.1842Z" fill="white"/>
<path fill-rule="evenodd" clip-rule="evenodd" d="M13.703 11.8251C13.6587 11.8775 13.8119 12.0912 14.0134 12.0912C14.3521 12.0509 14.6464 11.8614 14.9206 11.3655C14.9931 11.2445 15.1221 11.0026 15.1262 10.8051C15.1544 9.67623 15.0697 8.79734 14.9004 7.98294C14.8923 7.90231 14.9004 7.80555 14.9125 7.78136C14.9327 7.75717 15.0052 7.78136 15.0455 7.72089C15.102 7.66041 14.8923 7.17258 14.7754 6.98713C14.7311 6.90246 14.7149 6.84602 14.6464 6.99519C14.5698 7.11614 14.5255 7.32982 14.5255 7.52737C14.6867 8.6401 14.7391 9.61576 14.844 10.7245C14.852 10.8333 14.8359 10.9905 14.7633 11.051C14.4684 11.381 14.1071 11.6448 13.703 11.8251ZM18.2507 11.8211C18.0088 11.9581 18.0088 12.1194 18.2063 12.1275C18.541 12.0872 18.9401 12.0589 19.2143 11.6437C19.2868 11.5268 19.3755 11.2123 19.3796 11.0228C19.4037 9.89394 19.3634 9.0473 19.1941 8.23291C19.186 8.15227 19.1498 7.97085 19.1618 7.94666C19.186 7.89022 19.2949 7.95069 19.3352 7.88618C19.3917 7.82974 19.053 7.39029 18.932 7.20081C18.8877 7.12017 18.8716 7.06373 18.803 7.2129C18.7264 7.33385 18.7022 7.55156 18.7305 7.74105C18.9119 8.95054 19.0449 9.85766 19.0691 10.926C19.057 11.0309 19.053 11.0873 19.0046 11.2123C18.8998 11.3494 18.7829 11.5187 18.67 11.5993C18.5611 11.68 18.3273 11.7606 18.2507 11.8211Z" fill="white"/>
<path fill-rule="evenodd" clip-rule="evenodd" d="M18.4322 10.7365V9.99873C18.4291 9.81489 18.388 9.63368 18.3113 9.46655C18.2387 9.30529 18.2831 9.18031 18.2508 9.00695C18.2186 8.83762 18.2266 8.57959 18.1783 8.37801C18.1621 8.29738 18.1218 8.04742 18.1379 8.02323C18.1541 7.96679 18.2307 8.02323 18.267 7.95872C18.3234 7.89825 18.0734 7.25319 17.9485 7.07176C17.9041 6.99113 17.8235 7.01532 17.7186 7.15239C17.6259 7.23706 17.6622 7.43864 17.6985 7.62813C17.9404 8.89003 18.1178 10.035 18.0815 11.2324C18.0694 11.3372 18.4363 10.93 18.4322 10.7365ZM16.6462 9.17224C16.4971 9.17224 16.1786 8.8739 16.0818 8.70458C16.0678 8.66376 16.0624 8.6205 16.0659 8.5775C16.0694 8.5345 16.0816 8.49267 16.102 8.45461C16.1584 8.4143 16.2471 8.37398 16.3116 8.4143C16.3116 8.4143 16.3761 8.51106 16.364 8.52315C16.4446 8.56347 16.485 8.53928 16.493 8.50299C16.4971 8.44655 16.4648 8.41027 16.4648 8.34173C16.5051 8.16837 16.7067 8.14015 16.7793 8.25303C16.8357 8.32157 16.8559 8.46671 16.8639 8.5675C16.8639 8.61588 16.7833 8.5554 16.7349 8.5675C16.6906 8.58363 16.6785 8.63604 16.6745 8.68442C16.6664 8.81343 16.6503 9.01904 16.6462 9.16821V9.17224ZM13.8402 11.051C13.8805 10.664 13.8281 9.9826 13.8241 9.75683C13.808 9.22062 13.7193 8.18449 13.6789 8.01516C13.6306 7.6886 13.812 8.05145 13.7878 7.86196C13.7273 7.53943 13.5459 7.31366 13.3363 7.01532C13.2677 6.92259 13.2717 6.90243 13.1629 7.03951C13.05 7.3056 13.1508 7.48702 13.179 7.69263C13.3322 8.36592 13.4209 8.98276 13.4612 9.59557C13.5064 10.233 13.5118 10.8725 13.4774 11.5106C13.5943 11.5187 13.7797 11.3251 13.8402 11.051Z" fill="white"/>
<path fill-rule="evenodd" clip-rule="evenodd" d="M18.9522 10.4342C18.6821 9.98672 18.279 9.49889 18.1701 9.31746C17.8091 8.8107 17.4299 8.31717 17.0332 7.83785C16.6986 7.4871 17.1864 7.78141 16.9687 7.51129C16.7832 7.30971 16.7268 7.2452 16.5736 7.12425C16.4929 7.07184 16.4446 6.97508 16.4204 7.14038C16.4083 7.28552 16.4002 7.45485 16.4083 7.57983C16.4083 7.64837 16.4808 7.77335 16.5413 7.84995C17.3476 8.84576 18.2346 9.86577 18.9482 11.1438C19.049 11.0874 19.0167 10.5149 18.9482 10.4342H18.9522Z" fill="white"/>
<path fill-rule="evenodd" clip-rule="evenodd" d="M6.78878 9.60371C6.76862 9.64 6.72427 9.68434 6.7404 9.72466C6.77265 9.76498 6.79684 9.77707 6.84522 9.7811C6.88554 9.7811 6.95005 9.78917 6.96214 9.76498C6.97667 9.74721 6.9862 9.72589 6.98975 9.70321C6.99329 9.68053 6.99072 9.65732 6.9823 9.63596C6.94198 9.52308 6.81297 9.5634 6.78878 9.60371Z" fill="#199D00"/>
<path fill-rule="evenodd" clip-rule="evenodd" d="M15.8358 16.1631C16.1946 16.1752 16.4285 16.1793 16.747 16.2156L17.1179 16.1752C17.5331 16.1349 17.5533 16.7679 17.5533 16.7679C17.5493 17.1388 17.4041 17.1549 17.2227 17.1953C17.1179 17.2114 17.0614 17.1348 17.009 17.0541C16.9405 17.0824 16.8477 17.0864 16.7308 17.0703C16.5817 17.0622 16.4325 17.0622 16.2873 17.0501C16.1261 17.038 16.0414 17.0703 15.8842 17.0541C15.8479 17.1066 15.8036 17.1751 15.7108 17.1549C15.6302 17.1469 15.5334 16.9171 15.5617 16.7477C15.6181 16.6228 15.602 16.6631 15.5979 16.6066C14.1304 16.5703 12.6548 16.5058 11.2155 16.526C10.0867 16.526 8.97798 16.5744 7.86928 16.6228C7.27663 16.6147 6.82106 16.5179 6.51062 16.0583C6.53884 16.0583 8.02249 16.147 8.45387 16.1188C9.2602 16.1067 9.98993 16.0422 10.8083 16.018C12.421 16.0462 14.0135 16.0462 15.6262 16.1591C15.473 16.0543 15.4649 15.8043 15.7068 15.7439C15.7229 15.7318 15.735 15.8648 15.7713 15.8648C15.9568 15.8527 15.8761 16.1067 15.8358 16.1631ZM9.36905 7.28144C9.12715 7.97892 9.50613 8.7409 9.77222 8.66833C9.96574 8.74896 10.0867 8.38208 10.1673 7.98295C10.2197 7.87006 10.26 7.85797 10.2883 7.91441C10.2802 8.44659 10.3286 8.56351 10.4657 8.72477C10.5445 8.79518 10.646 8.8351 10.7517 8.83731C10.8574 8.83953 10.9604 8.80391 11.0422 8.73687L11.2801 8.49497C11.3325 8.44256 11.401 8.43852 11.4776 8.4869C11.5502 8.55544 11.5381 8.66833 11.6953 8.74896C11.8243 8.80137 12.1065 8.76106 12.171 8.64817C12.2557 8.499 12.2799 8.44659 12.3202 8.39015C12.3807 8.30951 12.4855 8.34177 12.4855 8.36999C12.4774 8.41434 12.417 8.46272 12.4573 8.54335C12.5299 8.59979 12.55 8.56351 12.5944 8.55141C12.7476 8.47884 12.8645 8.14018 12.8645 8.14018C12.8685 8.01923 12.8 8.0273 12.7556 8.05149L12.6347 8.13615C12.554 8.14825 12.4089 8.19663 12.3363 8.08374C12.2638 7.9507 12.2597 7.76121 12.2033 7.62413C12.2033 7.61607 12.1065 7.41046 12.1993 7.39836C12.2436 7.40642 12.3444 7.43061 12.3605 7.34998C12.4089 7.26935 12.2557 7.03955 12.1509 6.92263C12.0622 6.82587 11.9332 6.81377 11.8122 6.91456C11.7316 6.9952 11.7397 7.07583 11.7235 7.16049C11.7096 7.21932 11.7096 7.28059 11.7236 7.3394C11.7376 7.39821 11.7652 7.45292 11.8042 7.49915C11.8888 7.66445 12.0461 7.87813 11.9937 8.18453C11.9937 8.18453 11.9009 8.32564 11.7437 8.30548C11.6792 8.28935 11.5744 8.26516 11.5179 7.84587C11.4776 7.52737 11.526 7.08389 11.3929 6.87828C11.3446 6.74927 11.3123 6.62832 11.1914 6.84603C11.1591 6.92666 11.022 7.05567 11.1188 7.32176C11.211 7.55609 11.2389 7.81083 11.1994 8.05955C11.143 8.14422 11.1309 8.17647 11.0543 8.26113C10.9535 8.36999 10.8406 8.34177 10.7559 8.30145C10.6753 8.24904 10.6108 8.22082 10.5745 8.04746C10.5826 7.7733 10.5947 7.32579 10.5463 7.22903C10.4737 7.08389 10.3528 7.1363 10.3004 7.18065C10.0664 7.44009 9.90998 7.75996 9.84882 8.1039C9.78028 8.32564 9.70771 8.26516 9.6553 8.17244C9.53032 8.05149 9.52226 7.12824 9.36905 7.28144Z" fill="white"/>
<path fill-rule="evenodd" clip-rule="evenodd" d="M10.1028 8.80139C10.2157 8.72076 10.1632 8.66835 10.3285 8.83364C10.5413 9.20774 10.6654 9.62565 10.6914 10.0552C10.6793 10.156 10.7519 10.2165 10.7841 10.1963C10.8002 9.9625 11.3768 9.63191 11.9009 9.58353C11.9815 9.5674 11.9412 9.4142 11.9533 9.33357C11.921 9.04329 12.1146 8.7772 12.3927 8.75704C12.7637 8.81349 12.8886 9.01104 12.8967 9.31341C12.8564 9.898 12.2476 9.99879 11.9049 10.0391C11.8525 10.0633 11.8323 10.0875 11.9049 10.1157L13.3361 10.1197L13.4087 10.1601C13.4168 10.2004 13.3886 10.1681 13.3281 10.2608C13.2676 10.3536 13.191 10.5713 13.187 10.7124C12.7579 10.8376 12.3178 10.9213 11.8727 10.9624C11.7195 11.043 11.6429 11.1478 11.6711 11.2647C11.7235 11.3978 12.0702 11.5268 12.0702 11.5348C12.1347 11.5752 12.2113 11.6719 12.0501 11.8654C11.3526 11.8372 10.8123 11.5389 10.6269 11.1196C10.5704 11.0793 10.5059 11.1196 10.4697 11.176C10.2269 11.5491 9.87696 11.8401 9.46577 12.0106C9.18759 12.0791 8.90538 11.9703 8.77233 11.7888C8.68364 11.684 8.68767 11.5711 8.65138 11.5469C8.50221 11.6114 7.21612 12.1597 7.38142 11.9058C7.69185 11.5671 8.23612 11.3212 8.71186 10.9906C8.75217 10.8817 8.81265 10.5068 9.00214 10.3858C9.0102 10.3858 8.96988 10.6035 8.97391 10.6963C8.97391 10.7729 8.96988 10.8011 8.98601 10.7809C9.01826 10.7608 9.59882 10.3052 9.64317 10.1641C9.69961 10.0835 9.65929 9.88187 9.65929 9.87381C9.55447 9.59159 9.40127 9.57143 9.34482 9.43033C9.29241 9.24487 9.3166 9.03523 9.42143 8.97475C9.51415 8.89009 9.62301 8.89815 9.72783 8.99088C9.84878 9.0957 9.94957 9.30131 9.98182 9.45452C9.96167 9.51499 9.82862 9.4142 9.78024 9.44645C9.86087 9.52709 9.90119 9.62788 9.92941 9.74883C10.01 10.0714 9.98182 10.1923 9.90925 10.402C9.65123 10.9422 9.32063 11.1075 9.03036 11.305C9.02229 11.3091 9.01826 11.4461 9.12712 11.5187C9.16743 11.559 9.3166 11.5752 9.48996 11.5187C9.86706 11.3105 10.1721 10.9928 10.3648 10.6076C10.4172 10.3173 10.3447 10.0109 10.2681 9.74479C10.1802 9.53256 10.0995 9.31742 10.0262 9.09973C10.0181 8.93847 10.0302 8.88202 10.1068 8.80139H10.1028ZM6.36141 7.29356C6.52268 7.37016 6.83311 7.33387 6.82102 7.07182L6.81295 6.94684C6.7807 6.8662 6.68797 6.88636 6.66782 6.97103C6.65975 6.99522 6.67991 7.03956 6.65572 7.05166C6.63959 7.06375 6.58718 7.05569 6.59121 6.98312C6.59121 6.95893 6.57509 6.93474 6.56299 6.91861C6.5509 6.91458 6.54687 6.91055 6.52671 6.91055C6.50252 6.91055 6.50655 6.91861 6.49042 6.93877L6.47833 6.99925C6.47833 7.02747 6.46623 7.03553 6.44607 7.03956C6.42592 7.03956 6.42995 7.03956 6.41382 7.0315C6.40173 7.01941 6.38963 7.01537 6.38963 6.99522L6.38157 6.93071C6.37083 6.91882 6.3568 6.9104 6.34125 6.90652C6.24852 6.90652 6.24449 7.01134 6.24852 7.05166C6.24046 7.05569 6.23643 7.24115 6.36141 7.29356Z" fill="white"/>
<path fill-rule="evenodd" clip-rule="evenodd" d="M11.1833 9.33352C11.3446 9.41416 11.7397 9.36578 11.6429 9.11178L11.6348 8.99083C11.6026 8.9102 11.5139 8.93036 11.4897 9.01099C11.4857 9.03518 11.5018 9.07953 11.4776 9.09162C11.4655 9.10775 11.4131 9.09969 11.4131 9.02712C11.4131 9.00293 11.397 8.97874 11.3849 8.96261C11.3768 8.95455 11.3688 8.95455 11.3486 8.95455C11.3284 8.95455 11.3284 8.95858 11.3163 8.97874L11.3043 9.03921C11.3002 9.06744 11.2881 9.07953 11.272 9.07953C11.2478 9.07953 11.2559 9.07953 11.2357 9.07147C11.2277 9.05937 11.2115 9.05534 11.2115 9.03518C11.2115 9.01502 11.2115 8.98277 11.2035 8.97068C11.1954 8.95858 11.1793 8.95455 11.1631 8.95052C11.0744 8.95052 11.0664 9.05131 11.0704 9.09162C11.0664 9.09969 11.0624 9.28111 11.1833 9.33352ZM13.9974 8.48688C14.1587 8.56751 14.4691 8.53123 14.457 8.26917L14.4489 8.14419C14.4167 8.06356 14.324 8.08371 14.3038 8.16435C14.2957 8.19257 14.3159 8.23289 14.2917 8.24498C14.2756 8.26111 14.2232 8.25304 14.2272 8.18047C14.2272 8.15628 14.207 8.13209 14.199 8.11597C14.1869 8.11194 14.1828 8.1079 14.1587 8.1079C14.1385 8.1079 14.1385 8.11597 14.1264 8.13613L14.1143 8.1966C14.1143 8.22079 14.1022 8.23289 14.0821 8.23692C14.0619 8.23692 14.0659 8.23692 14.0498 8.22482C14.0377 8.21676 14.0256 8.2087 14.0256 8.19257C14.0256 8.17241 14.0216 8.14016 14.0135 8.12403C14.0055 8.11194 13.9934 8.1079 13.9732 8.10387C13.8845 8.10387 13.8805 8.2087 13.8845 8.24498C13.8764 8.25304 13.8724 8.4385 13.9974 8.48688ZM15.4488 10.6116C15.1666 10.9341 15.2915 11.4663 15.3561 11.5791C15.4528 11.7727 15.5254 11.8936 15.7108 11.9863C15.8802 12.1073 16.0092 12.0307 16.0817 11.946C16.2511 11.7727 16.2511 11.3252 16.3317 11.2365C16.3882 11.0752 16.5252 11.1034 16.5938 11.176C16.656 11.2636 16.7392 11.3343 16.8357 11.3816C16.9929 11.5187 17.1784 11.5429 17.3638 11.4219C17.4888 11.3493 17.5735 11.2566 17.646 11.0752C17.7267 10.8535 17.6863 9.83748 17.6662 9.23676C17.6621 9.18838 17.5049 8.40625 17.5049 8.39818C17.5049 8.39012 17.4807 7.99905 17.4646 7.90632C17.4646 7.87004 17.4525 7.85794 17.4928 7.86601C17.5331 7.89826 17.5412 7.90229 17.5654 7.91439C17.6057 7.92245 17.646 7.84988 17.6218 7.78134L17.2267 7.05565C17.1985 7.02742 17.1582 6.99517 17.1058 7.06774C17.0753 7.09434 17.0508 7.12718 17.0342 7.16405C17.0175 7.20092 17.0089 7.24095 17.009 7.28142C17.0211 7.45478 17.0493 7.62814 17.0614 7.8015L17.2227 8.6804C17.2711 9.30933 17.2832 9.82135 17.3316 10.4543C17.3235 10.7164 17.2429 10.9502 17.1622 10.9784C17.1622 10.9784 17.0453 11.051 16.9687 10.9784C16.9082 10.9502 16.6784 10.5914 16.6784 10.5914C16.5575 10.4825 16.4849 10.5108 16.3962 10.5914C16.1704 10.8131 16.0656 11.2324 15.9084 11.5187C15.8681 11.5832 15.7512 11.6396 15.6262 11.5146C15.3036 11.0712 15.4931 10.4503 15.4528 10.6116H15.4488ZM14.07 6.94679C14.2191 7.00727 14.3199 7.30964 14.2877 7.45478C14.2594 7.63217 14.1788 7.82972 14.1264 7.8015C14.0619 7.78134 14.1667 7.62411 14.1062 7.45881C14.074 7.35399 13.8724 7.15644 13.8926 7.09999C13.8522 6.97904 13.9813 6.92663 14.07 6.94679Z" fill="white"/>
<path fill-rule="evenodd" clip-rule="evenodd" d="M15.9286 10.789C15.9568 10.4262 15.9044 10.2085 15.8964 9.99881C15.8883 9.78917 15.6545 8.18458 15.6141 8.02331C15.5537 7.72094 15.8359 7.98299 15.8036 7.8056C15.7069 7.58386 15.469 7.26133 15.3924 7.07184C15.348 6.99121 15.3642 6.91461 15.2634 7.04765C15.1764 7.28742 15.146 7.54408 15.1747 7.79754C15.4166 9.05944 15.6625 10.1077 15.6222 11.3091C15.7391 11.3091 15.8722 11.047 15.9286 10.785V10.789ZM18.4443 7.45485C18.5814 7.52339 18.658 7.89833 18.6459 8.00315C18.6177 8.2007 18.5451 8.40632 18.4927 8.38213C18.4403 8.35794 18.5048 8.09185 18.4766 8.01122C18.4484 7.8943 18.267 7.68465 18.2831 7.62015C18.2468 7.49113 18.3637 7.43469 18.4443 7.45888V7.45485ZM8.45797 10.1077C8.58699 10.1601 8.65955 10.4302 8.64746 10.5108C8.62327 10.656 8.55473 10.8092 8.50635 10.793C8.45394 10.7729 8.51442 10.5794 8.49023 10.5189C8.47813 10.3697 8.30074 10.2931 8.30477 10.2326C8.27252 10.1117 8.38137 10.0915 8.45797 10.1117V10.1077Z" fill="white"/>
<path fill-rule="evenodd" clip-rule="evenodd" d="M11.5664 10.5229C11.7276 10.5309 11.8123 10.664 11.6591 10.7164C11.5059 10.7688 11.3567 10.8091 11.3567 11.0309C11.4132 11.3413 11.2761 11.2324 11.1955 11.1921C11.1027 11.1236 10.8366 10.9623 10.8003 10.6075C10.7963 10.5269 10.8608 10.4543 10.9656 10.4543C11.1269 10.4946 11.3607 10.5027 11.5623 10.5229H11.5664Z" fill="#199D00"/>
<path fill-rule="evenodd" clip-rule="evenodd" d="M5.02298 6.8581C5.21247 6.91454 5.22456 7.19272 5.20843 7.27739C5.18425 7.42656 5.11571 7.58379 5.06733 7.56364C5.01492 7.54751 5.06733 7.34593 5.04314 7.28142C5.01492 7.19272 4.85365 7.03146 4.87381 6.98308C4.83349 6.88632 4.94638 6.84197 5.02298 6.86213V6.8581ZM8.76837 8.17241C8.62323 8.25305 8.56679 8.48688 8.65549 8.62396C8.74015 8.74491 8.8732 8.70056 8.89335 8.70056C9.03446 8.71669 9.11913 8.43044 9.11913 8.43044C9.11913 8.43044 9.12316 8.34981 8.95786 8.50301C8.88529 8.5151 8.87723 8.49091 8.85707 8.4506C8.83988 8.37474 8.84839 8.29532 8.88126 8.22483C8.90545 8.15629 8.84901 8.12403 8.76837 8.17241ZM9.85692 6.74924C9.78838 6.80166 9.63921 6.95083 9.63518 7.12419C9.63518 7.22095 9.61502 7.22095 9.67549 7.28545C9.72387 7.34996 9.77225 7.34593 9.86498 7.29755C9.88806 7.28259 9.90783 7.26308 9.92308 7.2402C9.93834 7.21732 9.94875 7.19156 9.95368 7.1645C9.97787 7.05162 9.83676 7.21691 9.82063 7.09193C9.78838 6.97905 9.87708 6.93067 9.96174 6.81778C9.96174 6.74118 9.96174 6.68877 9.86095 6.74924H9.85692ZM10.7398 6.91051C10.7047 7.05193 10.6831 7.19638 10.6753 7.3419C10.6512 7.45075 10.7882 7.4951 10.8527 7.35399C10.9455 7.1 10.9455 6.99114 10.9535 6.88229C10.9253 6.72102 10.8124 6.72102 10.7398 6.90648V6.91051ZM16.2834 9.72863C16.2995 9.70847 17.0655 9.1642 17.0655 9.1642C17.1421 9.14001 17.126 9.44641 17.0897 9.44641C16.8531 9.67573 16.5808 9.86501 16.2834 10.0068C16.243 10.031 16.2068 9.79717 16.2834 9.7246V9.72863ZM16.9768 9.7246C17.1098 9.7891 17.1663 10.1842 17.1502 10.289C17.1542 10.4987 17.0211 10.664 16.9687 10.6357C16.9123 10.6116 16.9728 10.3777 16.9486 10.2971C16.9204 10.1802 16.8034 9.96246 16.8236 9.90199C16.7833 9.76894 16.8962 9.70041 16.9768 9.7246ZM12.4452 11.4179C12.4976 11.3373 12.6589 11.2284 12.6629 11.2284C12.7395 11.1881 12.8121 11.2566 12.8081 11.2526C12.8202 11.3292 12.7597 11.3977 12.7799 11.4985C12.796 11.5388 12.8081 11.5832 12.8847 11.5671C13.0056 11.4743 13.1185 11.4663 13.2395 11.4582C13.3322 11.4663 13.3322 11.6195 13.2757 11.6235C13.05 11.6719 12.9532 11.7324 12.792 11.7928C12.7154 11.8372 12.6508 11.7807 12.6508 11.7767C12.6508 11.7727 12.6105 11.7324 12.6387 11.6316C12.6428 11.5509 12.6105 11.5106 12.546 11.5187C12.4936 11.5429 12.4493 11.559 12.4251 11.5026C12.413 11.4622 12.413 11.4421 12.4452 11.4179ZM17.7791 11.6275C17.8113 11.6678 17.8355 11.7082 17.7791 11.7767L17.634 11.8977C17.6057 11.946 17.5936 12.0105 17.6702 12.0307C17.8113 12.071 18.1419 11.8573 18.1419 11.8533C18.1944 11.813 18.1782 11.7364 18.1702 11.7364C18.1419 11.7001 18.0694 11.7203 18.025 11.7162C18.0008 11.7162 17.9283 11.7041 17.9605 11.6396C17.9928 11.5993 18.0008 11.5751 18.021 11.5227C18.0452 11.4743 18.025 11.4421 17.9444 11.4139C17.8638 11.4018 17.8315 11.4098 17.7428 11.4139C17.6904 11.426 17.6743 11.4461 17.6622 11.5066C17.6702 11.5953 17.7226 11.5912 17.7831 11.6275H17.7791Z" fill="white"/>
<path fill-rule="evenodd" clip-rule="evenodd" d="M12.4735 9.41018C12.4533 9.4505 12.3808 9.44647 12.3122 9.41018C12.2437 9.3739 12.2114 9.30939 12.2316 9.27311C12.2518 9.23682 12.3243 9.23682 12.3929 9.27311C12.4614 9.30939 12.4937 9.3739 12.4735 9.41018ZM8.9942 7.32179C8.95388 7.33389 8.90147 7.2976 8.87728 7.24116C8.85309 7.18472 8.86518 7.14037 8.9055 7.12827C8.94582 7.11618 8.99823 7.1565 9.02242 7.20891C9.04661 7.26132 9.03451 7.31373 8.9942 7.32179Z" fill="#199D00"/>
<path fill-rule="evenodd" clip-rule="evenodd" d="M15.8761 16.6469C16.239 16.6631 16.5857 16.651 16.9486 16.6711C17.0171 16.7235 16.9687 16.8647 16.9244 16.8526L16.618 16.8445C16.618 16.7276 16.3156 16.7477 16.3277 16.8485C16.1664 16.8687 16.0213 16.8445 15.86 16.8364C15.8116 16.776 15.8197 16.6711 15.8761 16.6469Z" fill="#199D00"/>
</g>
<defs>
<clipPath id="clip0">
<rect x="2" y="2" width="20" height="20" rx="10" fill="white"/>
</clipPath>
</defs>
</svg>
