<svg width="40" height="40" viewBox="0 0 40 40" fill="none" xmlns="http://www.w3.org/2000/svg">
<g filter="url(#filter0_d)">
<circle cx="20" cy="18" r="16" fill="#5154A5"/>
<path d="M18.1857 16.344H15.0537V13.788H18.3777V12.912H13.9977V21H18.5577V20.124H15.0537V17.208H18.1857V16.344ZM20.8999 21V17.544C20.8999 16.2 20.8879 15.228 20.8279 14.208L20.8639 14.196C21.2599 15.072 21.7999 15.996 22.3639 16.896L24.9319 21H25.9879V12.912H25.0039V16.296C25.0039 17.556 25.0279 18.54 25.1239 19.62L25.0879 19.632C24.7159 18.804 24.2359 17.952 23.6479 17.004L21.0679 12.912H19.9159V21H20.8999Z" fill="white"/>
</g>
<defs>
<filter id="filter0_d" x="0" y="0" width="40" height="40" filterUnits="userSpaceOnUse" color-interpolation-filters="sRGB">
<feFlood flood-opacity="0" result="BackgroundImageFix"/>
<feColorMatrix in="SourceAlpha" type="matrix" values="0 0 0 0 0 0 0 0 0 0 0 0 0 0 0 0 0 0 127 0"/>
<feOffset dy="2"/>
<feGaussianBlur stdDeviation="2"/>
<feColorMatrix type="matrix" values="0 0 0 0 0 0 0 0 0 0 0 0 0 0 0 0 0 0 0.2 0"/>
<feBlend mode="normal" in2="BackgroundImageFix" result="effect1_dropShadow"/>
<feBlend mode="normal" in="SourceGraphic" in2="effect1_dropShadow" result="shape"/>
</filter>
</defs>
</svg>
