<svg width="40" height="40" viewBox="0 0 40 40" fill="none" xmlns="http://www.w3.org/2000/svg">
<g filter="url(#filter0_d)">
<circle cx="20" cy="18" r="16" fill="#5154A5"/>
<mask id="path-2-inside-1" fill="white">
<path fill-rule="evenodd" clip-rule="evenodd" d="M22.8293 10H26C27.1046 10 28 10.8954 28 12V24C28 25.1046 27.1046 26 26 26H14C12.8954 26 12 25.1046 12 24V12C12 10.8954 12.8954 10 14 10H17.1707C17.5825 8.83481 18.6938 8 20 8C21.3062 8 22.4175 8.83481 22.8293 10Z"/>
</mask>
<path d="M22.8293 10L21.8865 10.3332L22.1221 11H22.8293V10ZM17.1707 10V11H17.8779L18.1135 10.3332L17.1707 10ZM22.8293 11H26V9H22.8293V11ZM26 11C26.5523 11 27 11.4477 27 12H29C29 10.3431 27.6569 9 26 9V11ZM27 12V24H29V12H27ZM27 24C27 24.5523 26.5523 25 26 25V27C27.6569 27 29 25.6569 29 24H27ZM26 25H14V27H26V25ZM14 25C13.4477 25 13 24.5523 13 24H11C11 25.6569 12.3431 27 14 27V25ZM13 24V12H11V24H13ZM13 12C13 11.4477 13.4477 11 14 11V9C12.3431 9 11 10.3431 11 12H13ZM14 11H17.1707V9H14V11ZM18.1135 10.3332C18.3886 9.5551 19.1307 9 20 9V7C18.2568 7 16.7765 8.11451 16.2279 9.66675L18.1135 10.3332ZM20 9C20.8693 9 21.6114 9.5551 21.8865 10.3332L23.7721 9.66675C23.2235 8.11451 21.7432 7 20 7V9Z" fill="white" mask="url(#path-2-inside-1)"/>
<circle cx="20" cy="11" r="1" fill="white"/>
<circle cx="20" cy="16" r="2.5" stroke="white"/>
<path d="M17 20.5H23C23.8284 20.5 24.5 21.1716 24.5 22V25.5H15.5V22C15.5 21.1716 16.1716 20.5 17 20.5Z" stroke="white"/>
</g>
<defs>
<filter id="filter0_d" x="0" y="0" width="40" height="40" filterUnits="userSpaceOnUse" color-interpolation-filters="sRGB">
<feFlood flood-opacity="0" result="BackgroundImageFix"/>
<feColorMatrix in="SourceAlpha" type="matrix" values="0 0 0 0 0 0 0 0 0 0 0 0 0 0 0 0 0 0 127 0"/>
<feOffset dy="2"/>
<feGaussianBlur stdDeviation="2"/>
<feColorMatrix type="matrix" values="0 0 0 0 0 0 0 0 0 0 0 0 0 0 0 0 0 0 0.2 0"/>
<feBlend mode="normal" in2="BackgroundImageFix" result="effect1_dropShadow"/>
<feBlend mode="normal" in="SourceGraphic" in2="effect1_dropShadow" result="shape"/>
</filter>
</defs>
</svg>
