<svg width="24" height="24" viewBox="0 0 24 24" fill="none" xmlns="http://www.w3.org/2000/svg">
<mask id="path-1-inside-1" fill="white">
<path fill-rule="evenodd" clip-rule="evenodd" d="M14.8293 4H18C19.1046 4 20 4.89543 20 6V18C20 19.1046 19.1046 20 18 20H6C4.89543 20 4 19.1046 4 18V6C4 4.89543 4.89543 4 6 4H9.17071C9.58254 2.83481 10.6938 2 12 2C13.3062 2 14.4175 2.83481 14.8293 4Z"/>
</mask>
<path d="M14.8293 4L13.8865 4.33325L14.1221 5H14.8293V4ZM9.17071 4V5H9.87788L10.1135 4.33325L9.17071 4ZM14.8293 5H18V3H14.8293V5ZM18 5C18.5523 5 19 5.44772 19 6H21C21 4.34315 19.6569 3 18 3V5ZM19 6V18H21V6H19ZM19 18C19 18.5523 18.5523 19 18 19V21C19.6569 21 21 19.6569 21 18H19ZM18 19H6V21H18V19ZM6 19C5.44771 19 5 18.5523 5 18H3C3 19.6569 4.34315 21 6 21V19ZM5 18V6H3V18H5ZM5 6C5 5.44772 5.44772 5 6 5V3C4.34315 3 3 4.34315 3 6H5ZM6 5H9.17071V3H6V5ZM10.1135 4.33325C10.3886 3.5551 11.1307 3 12 3V1C10.2568 1 8.7765 2.11451 8.22787 3.66675L10.1135 4.33325ZM12 3C12.8693 3 13.6114 3.5551 13.8865 4.33325L15.7721 3.66675C15.2235 2.11451 13.7432 1 12 1V3Z" fill="#303030" mask="url(#path-1-inside-1)"/>
<circle cx="12" cy="5" r="1" fill="#303030"/>
<circle cx="12" cy="10" r="2.5" stroke="#303030"/>
<path d="M7.5 16C7.5 15.1716 8.17157 14.5 9 14.5H15C15.8284 14.5 16.5 15.1716 16.5 16V19.5H7.5V16Z" stroke="#303030"/>
</svg>
