<?xml version="1.0" encoding="utf-8"?>
<!-- Generator: Adobe Illustrator 23.0.2, SVG Export Plug-In . SVG Version: 6.00 Build 0)  -->
<svg version="1.1" id="Layer_1" xmlns="http://www.w3.org/2000/svg" xmlns:xlink="http://www.w3.org/1999/xlink" x="0px" y="0px"
	 viewBox="0 0 512 512" style="enable-background:new 0 0 512 512;" xml:space="preserve">
<style type="text/css">
	.st0{fill:#3B3A7E;}
	.st1{fill:#D35E8B;}
</style>
<g>
	<path class="st0" d="M467.2,329.6c-11.2-9.2-27.4-9-38.3,0.7c-44.9,39.7-81,68.3-131.5,61.7c-92.7-12-144.9-137.6-114.8-259.2
		c11.2-45.3,23.7-76,32.6-95.4c6-13.1,0.3-28.7-12.8-34.9s-28.8-0.7-35.1,12.3c-16,32.8-26.3,59.2-38,99
		C91,244.3,138.1,372.9,223.5,428c5.9-5.2,13.7-8.4,22.1-8.4c18.1,0,32.9,2.1,33.7,19.9c0.3,0.1,2.2-6.8,1,3.2
		c2-17.3,15.5-21.8,33.3-21.8c16.7,0,30.5,12.2,33.2,28.2c43.5-11.6,86.8-40.5,122.4-75.9C481.7,361,480.6,340.7,467.2,329.6"/>
	<path class="st1" d="M365.6,479.9c1.5,18.3-13.7,33.5-32,32c-14.4-1.2-26.1-12.8-27.2-27.2c-1.5-18.3,13.7-33.5,32-32
		C352.8,453.9,364.4,465.5,365.6,479.9"/>
	<path class="st1" d="M83.1,371.4H199c6.9,0,12.7,5.6,12.7,12.7c0,6.9-5.6,12.7-12.7,12.7H83.1c-6.9,0-12.7-5.6-12.7-12.7
		C70.5,377,76.1,371.4,83.1,371.4"/>
	<path class="st1" d="M46.4,435.5h75c6.8,0,12.3-5.5,12.3-12.3s-5.5-12.3-12.3-12.3h-75c-6.8,0-12.3,5.5-12.3,12.3
		C34.2,430,39.7,435.5,46.4,435.5"/>
	<path class="st0" d="M206.1,414.8c58.8,48.8,115.5,43.4,159.6,28.4"/>
	<polygon class="st0" points="343.8,449.1 217.5,422.8 220.7,407 350.2,418.7 	"/>
	<path class="st1" d="M305.9,478.7c1.5,18.3-13.7,33.5-32,32c-14.4-1.2-26.1-12.8-27.2-27.2c-1.5-18.3,13.7-33.5,32-32
		C293.2,452.7,304.8,464.3,305.9,478.7"/>
	<path class="st1" d="M165.7,337.3c-1.3-5.4-6.3-9-11.9-9l-40.2-0.5c-3.1,0-5.8-2.6-5.6-5.8v-3.9c0.8-6.6,3.6-11.4,9.3-12.8
		c1.3-0.3,2.5-0.3,3.8-0.3l8.8,0.1c0.5,0,1,0,1.5,0c9-0.7,13.5-1.5,14.4-10.7c-0.7-9.3-5.6-14.5-15.1-15.7l-11.1-0.1
		c-12,0.1-22.1,4.3-30.5,12.6c-8.4,8.2-11.5,14.9-12,26.8v3.3c0,3.5-2.9,6.2-6.3,6.2l-14.3-0.3c-6.2-0.1-9.6,5.4-9.7,11.6
		s5,11.4,11.2,11.4l96.5,1.2C161.8,351.5,167.4,344.8,165.7,337.3"/>
</g>
</svg>
