<?xml version="1.0" encoding="UTF-8"?>
<svg xmlns="http://www.w3.org/2000/svg" xmlns:xlink="http://www.w3.org/1999/xlink" width="70px" height="70px" viewBox="0 0 70 70" version="1.1">
<g id="surface1">
<path style=" stroke:none;fill-rule:nonzero;fill:rgb(23.137255%,22.745098%,49.411765%);fill-opacity:1;" d="M 63.875 45.0625 C 62.34375 43.804688 60.128906 43.832031 58.640625 45.15625 C 52.5 50.585938 47.5625 54.496094 40.660156 53.59375 C 27.984375 51.953125 20.847656 34.78125 24.964844 18.15625 C 26.496094 11.964844 28.203125 7.765625 29.421875 5.113281 C 30.242188 3.324219 29.460938 1.191406 27.671875 0.34375 C 25.878906 -0.503906 23.734375 0.246094 22.871094 2.023438 C 20.683594 6.507812 19.277344 10.117188 17.675781 15.558594 C 12.441406 33.398438 18.882812 50.984375 30.554688 58.515625 C 31.363281 57.804688 32.429688 57.367188 33.578125 57.367188 C 36.054688 57.367188 38.078125 57.65625 38.1875 60.085938 C 38.226562 60.101562 38.484375 59.15625 38.320312 60.523438 C 38.59375 58.160156 40.441406 57.546875 42.875 57.546875 C 45.15625 57.546875 47.046875 59.210938 47.414062 61.398438 C 53.359375 59.8125 59.28125 55.863281 64.148438 51.023438 C 65.859375 49.355469 65.707031 46.578125 63.875 45.0625 "/>
<path style=" stroke:none;fill-rule:nonzero;fill:rgb(82.745098%,36.862745%,54.509804%);fill-opacity:1;" d="M 49.984375 65.609375 C 50.1875 68.113281 48.113281 70.191406 45.609375 69.984375 C 43.640625 69.820312 42.039062 68.234375 41.890625 66.265625 C 41.6875 63.765625 43.765625 61.6875 46.265625 61.890625 C 48.234375 62.054688 49.820312 63.640625 49.984375 65.609375 "/>
<path style=" stroke:none;fill-rule:nonzero;fill:rgb(82.745098%,36.862745%,54.509804%);fill-opacity:1;" d="M 11.359375 50.777344 L 27.207031 50.777344 C 28.148438 50.777344 28.945312 51.542969 28.945312 52.511719 C 28.945312 53.457031 28.179688 54.25 27.207031 54.25 L 11.359375 54.25 C 10.417969 54.25 9.625 53.484375 9.625 52.511719 C 9.640625 51.542969 10.40625 50.777344 11.359375 50.777344 "/>
<path style=" stroke:none;fill-rule:nonzero;fill:rgb(82.745098%,36.862745%,54.509804%);fill-opacity:1;" d="M 6.34375 59.539062 L 16.597656 59.539062 C 17.527344 59.539062 18.28125 58.789062 18.28125 57.859375 C 18.28125 56.929688 17.527344 56.179688 16.597656 56.179688 L 6.34375 56.179688 C 5.414062 56.179688 4.664062 56.929688 4.664062 57.859375 C 4.675781 58.789062 5.429688 59.539062 6.34375 59.539062 "/>
<path style=" stroke:none;fill-rule:nonzero;fill:rgb(23.137255%,22.745098%,49.411765%);fill-opacity:1;" d="M 28.179688 56.710938 C 36.21875 63.382812 43.96875 62.644531 50 60.59375 "/>
<path style=" stroke:none;fill-rule:nonzero;fill:rgb(23.137255%,22.745098%,49.411765%);fill-opacity:1;" d="M 47.003906 61.398438 L 29.734375 57.804688 L 30.171875 55.644531 L 47.878906 57.242188 Z M 47.003906 61.398438 "/>
<path style=" stroke:none;fill-rule:nonzero;fill:rgb(82.745098%,36.862745%,54.509804%);fill-opacity:1;" d="M 41.820312 65.445312 C 42.027344 67.949219 39.949219 70.027344 37.445312 69.820312 C 35.476562 69.65625 33.878906 68.070312 33.726562 66.101562 C 33.523438 63.601562 35.601562 61.523438 38.101562 61.726562 C 40.085938 61.890625 41.671875 63.476562 41.820312 65.445312 "/>
<path style=" stroke:none;fill-rule:nonzero;fill:rgb(82.745098%,36.862745%,54.509804%);fill-opacity:1;" d="M 22.65625 46.117188 C 22.476562 45.378906 21.792969 44.882812 21.027344 44.882812 L 15.53125 44.816406 C 15.105469 44.816406 14.738281 44.460938 14.765625 44.023438 L 14.765625 43.492188 C 14.875 42.585938 15.257812 41.933594 16.035156 41.742188 C 16.214844 41.699219 16.378906 41.699219 16.554688 41.699219 L 17.757812 41.710938 C 17.828125 41.710938 17.894531 41.710938 17.964844 41.710938 C 19.195312 41.617188 19.808594 41.507812 19.933594 40.25 C 19.835938 38.976562 19.167969 38.269531 17.867188 38.105469 L 16.351562 38.089844 C 14.710938 38.105469 13.328125 38.679688 12.179688 39.8125 C 11.03125 40.933594 10.609375 41.851562 10.539062 43.476562 L 10.539062 43.929688 C 10.539062 44.40625 10.144531 44.777344 9.679688 44.777344 L 7.726562 44.734375 C 6.875 44.71875 6.414062 45.472656 6.398438 46.320312 C 6.382812 47.167969 7.082031 47.878906 7.929688 47.878906 L 21.125 48.042969 C 22.121094 48.054688 22.886719 47.140625 22.65625 46.117188 "/>
</g>
</svg>
